<?xml version="1.0" standalone="no"?>
<!DOCTYPE svg PUBLIC "-//W3C//DTD SVG 1.1//EN" "https://www.w3.org/Graphics/SVG/1.1/DTD/svg11.dtd">

<svg width="800" height="600" version="1.1" xmlns="http://www.w3.org/2000/svg">
	<ellipse stroke="black" stroke-width="1" fill="none" cx="171.5" cy="156.5" rx="30" ry="30"/>
	<text x="164.5" y="162.5" font-family="Times New Roman" font-size="20">A</text>
	<ellipse stroke="black" stroke-width="1" fill="none" cx="291.5" cy="156.5" rx="30" ry="30"/>
	<text x="284.5" y="162.5" font-family="Times New Roman" font-size="20">B</text>
	<ellipse stroke="black" stroke-width="1" fill="none" cx="456.5" cy="156.5" rx="30" ry="30"/>
	<text x="450.5" y="162.5" font-family="Times New Roman" font-size="20">E</text>
	<ellipse stroke="black" stroke-width="1" fill="none" cx="606.5" cy="156.5" rx="30" ry="30"/>
	<text x="600.5" y="162.5" font-family="Times New Roman" font-size="20">F</text>
	<ellipse stroke="black" stroke-width="1" fill="none" cx="168.5" cy="277.5" rx="30" ry="30"/>
	<text x="161.5" y="283.5" font-family="Times New Roman" font-size="20">A</text>
	<ellipse stroke="black" stroke-width="1" fill="none" cx="306.5" cy="277.5" rx="30" ry="30"/>
	<text x="299.5" y="283.5" font-family="Times New Roman" font-size="20">C</text>
	<ellipse stroke="black" stroke-width="1" fill="none" cx="449.5" cy="277.5" rx="30" ry="30"/>
	<text x="442.5" y="283.5" font-family="Times New Roman" font-size="20">D</text>
	<ellipse stroke="black" stroke-width="1" fill="none" cx="224.5" cy="392.5" rx="30" ry="30"/>
	<text x="217.5" y="398.5" font-family="Times New Roman" font-size="20">C</text>
	<ellipse stroke="black" stroke-width="1" fill="none" cx="430.5" cy="389.5" rx="30" ry="30"/>
	<text x="424.5" y="395.5" font-family="Times New Roman" font-size="20">E</text>
	<ellipse stroke="black" stroke-width="1" fill="none" cx="615.5" cy="389.5" rx="30" ry="30"/>
	<text x="608.5" y="395.5" font-family="Times New Roman" font-size="20">G</text>
	<polygon stroke="black" stroke-width="1" points="268.5,180.5 190.034,256.612"/>
	<polygon fill="black" stroke-width="1" points="190.034,256.612 199.257,254.631 192.295,247.453"/>
	<polygon stroke="black" stroke-width="1" points="203.5,156.5 261.5,156.5"/>
	<polygon fill="black" stroke-width="1" points="261.5,156.5 253.5,151.5 253.5,161.5"/>
	<polygon stroke="black" stroke-width="1" points="486.5,156.5 576.5,156.5"/>
	<polygon fill="black" stroke-width="1" points="576.5,156.5 568.5,151.5 568.5,161.5"/>
	<polygon stroke="black" stroke-width="1" points="334.5,277.5 419.5,277.5"/>
	<polygon fill="black" stroke-width="1" points="419.5,277.5 411.5,272.5 411.5,282.5"/>
	<polygon stroke="black" stroke-width="1" points="256.5,389.5 400.5,389.5"/>
	<polygon fill="black" stroke-width="1" points="400.5,389.5 392.5,384.5 392.5,394.5"/>
	<polygon stroke="black" stroke-width="1" points="460.5,389.5 585.5,389.5"/>
	<polygon fill="black" stroke-width="1" points="585.5,389.5 577.5,384.5 577.5,394.5"/>
	<polygon stroke="black" stroke-width="1" points="321.5,156.5 426.5,156.5"/>
	<polygon fill="black" stroke-width="1" points="426.5,156.5 418.5,151.5 418.5,161.5"/>
	<polygon stroke="black" stroke-width="1" points="588.418,180.438 448.582,365.562"/>
	<polygon fill="black" stroke-width="1" points="448.582,365.562 457.394,362.192 449.414,356.165"/>
	<polygon stroke="black" stroke-width="1" points="199.5,277.5 276.5,277.5"/>
	<polygon fill="black" stroke-width="1" points="276.5,277.5 268.5,272.5 268.5,282.5"/>
	<polygon stroke="black" stroke-width="1" points="429.5,303.5 252.019,380.553"/>
	<polygon fill="black" stroke-width="1" points="252.019,380.553 261.348,381.953 257.366,372.781"/>
	<polygon stroke="black" stroke-width="1" points="88.5,277.5 138.5,277.5"/>
	<polygon fill="black" stroke-width="1" points="138.5,277.5 130.5,272.5 130.5,282.5"/>
	<polygon stroke="black" stroke-width="1" points="85.5,156.5 141.5,156.5"/>
	<polygon fill="black" stroke-width="1" points="141.5,156.5 133.5,151.5 133.5,161.5"/>
	<polygon stroke="black" stroke-width="1" points="111.5,392.5 194.5,392.5"/>
	<polygon fill="black" stroke-width="1" points="194.5,392.5 186.5,387.5 186.5,397.5"/>
</svg>
