<?xml version="1.0" standalone="no"?>
<!DOCTYPE svg PUBLIC "-//W3C//DTD SVG 1.1//EN" "https://www.w3.org/Graphics/SVG/1.1/DTD/svg11.dtd">

<svg width="800" height="600" version="1.1" xmlns="http://www.w3.org/2000/svg">
	<ellipse stroke="black" stroke-width="1" fill="none" cx="260.5" cy="249.5" rx="30" ry="30"/>
	<text x="254.5" y="255.5" font-family="Times New Roman" font-size="20">E</text>
	<ellipse stroke="black" stroke-width="1" fill="none" cx="456.5" cy="249.5" rx="30" ry="30"/>
	<text x="449.5" y="255.5" font-family="Times New Roman" font-size="20">C</text>
	<ellipse stroke="black" stroke-width="1" fill="none" cx="329.5" cy="335.5" rx="30" ry="30"/>
	<text x="322.5" y="341.5" font-family="Times New Roman" font-size="20">B</text>
	<ellipse stroke="black" stroke-width="1" fill="none" cx="403.5" cy="421.5" rx="30" ry="30"/>
	<text x="396.5" y="427.5" font-family="Times New Roman" font-size="20">A</text>
	<ellipse stroke="black" stroke-width="1" fill="none" cx="502.5" cy="130.5" rx="30" ry="30"/>
	<text x="495.5" y="136.5" font-family="Times New Roman" font-size="20">D</text>
	<ellipse stroke="black" stroke-width="1" fill="none" cx="181.5" cy="150.5" rx="30" ry="30"/>
	<text x="175.5" y="156.5" font-family="Times New Roman" font-size="20">F</text>
	<ellipse stroke="black" stroke-width="1" fill="none" cx="143.5" cy="255.5" rx="30" ry="30"/>
	<text x="136.5" y="261.5" font-family="Times New Roman" font-size="20">G</text>
	<polygon stroke="black" stroke-width="1" points="417.5,389.5 448.449,278.4"/>
	<polygon fill="black" stroke-width="1" points="448.449,278.4 441.486,284.764 451.119,287.448"/>
	<polygon stroke="black" stroke-width="1" points="467.317,221.518 491.683,158.482"/>
	<polygon fill="black" stroke-width="1" points="491.683,158.482 484.135,164.141 493.463,167.747"/>
	<polygon stroke="black" stroke-width="1" points="383.933,398.76 349.067,358.24"/>
	<polygon fill="black" stroke-width="1" points="349.067,358.24 350.495,367.566 358.075,361.043"/>
	<polygon stroke="black" stroke-width="1" points="310.726,312.101 279.274,272.899"/>
	<polygon fill="black" stroke-width="1" points="279.274,272.899 280.381,282.268 288.18,276.01"/>
	<polygon stroke="black" stroke-width="1" points="241.788,226.051 200.212,173.949"/>
	<polygon fill="black" stroke-width="1" points="200.212,173.949 201.294,183.321 209.11,177.084"/>
	<polygon stroke="black" stroke-width="1" points="426.5,249.5 290.5,249.5"/>
	<polygon fill="black" stroke-width="1" points="290.5,249.5 298.5,254.5 298.5,244.5"/>
	<polygon stroke="black" stroke-width="1" points="230.539,251.036 173.461,253.964"/>
	<polygon fill="black" stroke-width="1" points="173.461,253.964 181.706,258.547 181.194,248.56"/>
	<polygon stroke="black" stroke-width="1" points="557.5,249.5 486.5,249.5"/>
	<polygon fill="black" stroke-width="1" points="486.5,249.5 494.5,254.5 494.5,244.5"/>
	<polygon stroke="black" stroke-width="1" points="388.5,514.5 398.723,451.117"/>
	<polygon fill="black" stroke-width="1" points="398.723,451.117 392.513,458.219 402.385,459.811"/>
	<polygon stroke="black" stroke-width="1" points="492.5,492.5 426.952,440.209"/>
	<polygon fill="black" stroke-width="1" points="426.952,440.209 430.087,449.106 436.324,441.289"/>
</svg>
