<?xml version="1.0" standalone="no"?>
<!DOCTYPE svg PUBLIC "-//W3C//DTD SVG 1.1//EN" "https://www.w3.org/Graphics/SVG/1.1/DTD/svg11.dtd">

<svg width="800" height="600" version="1.1" xmlns="http://www.w3.org/2000/svg">
	<ellipse stroke="black" stroke-width="1" fill="none" cx="194.5" cy="209.5" rx="30" ry="30"/>
	<text x="187.5" y="215.5" font-family="Times New Roman" font-size="20">A</text>
	<ellipse stroke="black" stroke-width="1" fill="none" cx="309.5" cy="209.5" rx="30" ry="30"/>
	<text x="302.5" y="215.5" font-family="Times New Roman" font-size="20">B</text>
	<ellipse stroke="black" stroke-width="1" fill="none" cx="422.5" cy="209.5" rx="30" ry="30"/>
	<text x="415.5" y="215.5" font-family="Times New Roman" font-size="20">C</text>
	<ellipse stroke="black" stroke-width="1" fill="none" cx="194.5" cy="316.5" rx="30" ry="30"/>
	<text x="187.5" y="322.5" font-family="Times New Roman" font-size="20">A</text>
	<ellipse stroke="black" stroke-width="1" fill="none" cx="315.5" cy="316.5" rx="30" ry="30"/>
	<text x="308.5" y="322.5" font-family="Times New Roman" font-size="20">B</text>
	<ellipse stroke="black" stroke-width="1" fill="none" cx="422.5" cy="316.5" rx="30" ry="30"/>
	<text x="415.5" y="322.5" font-family="Times New Roman" font-size="20">C</text>
	<ellipse stroke="black" stroke-width="1" fill="none" cx="527.5" cy="209.5" rx="30" ry="30"/>
	<text x="520.5" y="215.5" font-family="Times New Roman" font-size="20">D</text>
	<ellipse stroke="black" stroke-width="1" fill="none" cx="527.5" cy="316.5" rx="30" ry="30"/>
	<text x="520.5" y="322.5" font-family="Times New Roman" font-size="20">D</text>
	<polygon stroke="black" stroke-width="1" points="224.5,209.5 279.5,209.5"/>
	<polygon fill="black" stroke-width="1" points="279.5,209.5 271.5,204.5 271.5,214.5"/>
	<polygon stroke="black" stroke-width="1" points="339.5,209.5 392.5,209.5"/>
	<polygon fill="black" stroke-width="1" points="392.5,209.5 384.5,204.5 384.5,214.5"/>
	<polygon stroke="black" stroke-width="1" points="225.5,316.5 285.5,316.5"/>
	<polygon fill="black" stroke-width="1" points="285.5,316.5 277.5,311.5 277.5,321.5"/>
	<polygon stroke="black" stroke-width="1" points="345.5,316.5 392.5,316.5"/>
	<polygon fill="black" stroke-width="1" points="392.5,316.5 384.5,311.5 384.5,321.5"/>
	<polygon stroke="black" stroke-width="1" points="401.287,230.713 336.713,295.287"/>
	<polygon fill="black" stroke-width="1" points="336.713,295.287 345.906,293.165 338.835,286.094"/>
	<polygon stroke="black" stroke-width="1" points="452.5,209.5 497.5,209.5"/>
	<polygon fill="black" stroke-width="1" points="497.5,209.5 489.5,204.5 489.5,214.5"/>
	<polygon stroke="black" stroke-width="1" points="452.5,316.5 497.5,316.5"/>
	<polygon fill="black" stroke-width="1" points="497.5,316.5 489.5,311.5 489.5,321.5"/>
	<polygon stroke="black" stroke-width="1" points="506.488,230.912 443.512,295.088"/>
	<polygon fill="black" stroke-width="1" points="443.512,295.088 452.684,292.88 445.547,285.876"/>
</svg>
